<svg xmlns="http://www.w3.org/2000/svg" viewBox="0 0 512 512"><rect width="100%" height="100%" fill="#8ac249"/><path d="M256 87.322c-62.005 0-112.453 50.447-112.453 112.452 0 18.614 4.655 37.07 13.501 53.44l92.802 167.84a7.02 7.02 0 0 0 6.15 3.624 7.02 7.02 0 0 0 6.15-3.623l92.836-167.897c8.812-16.314 13.467-34.77 13.467-53.385 0-62.004-50.448-112.451-112.453-112.451zM256 256c-31.003 0-56.226-25.223-56.226-56.226s25.223-56.226 56.226-56.226 56.226 25.223 56.226 56.226S287.003 256 256 256z" fill="#fff"/></svg>