<svg xmlns="http://www.w3.org/2000/svg" viewBox="0 0 16 16"><path d="M14.492 1.508a5.16 5.16 0 00-7.293 0 5.163 5.163 0 00-1.254 5.234L.137 12.547a.48.48 0 00-.137.332v2.652c0 .258.21.469.469.469H3.12a.48.48 0 00.332-.137l.66-.664a.473.473 0 00.137-.386l-.082-.711.984-.094c.227-.02.403-.2.422-.422l.094-.988.715.086a.462.462 0 00.363-.118.462.462 0 00.156-.351v-.871h.86a.48.48 0 00.332-.137l1.199-1.187c1.836.597 3.824.156 5.2-1.22a5.16 5.16 0 000-7.292zm-1.324 3.316a1.415 1.415 0 01-1.992 0 1.408 1.408 0 111.992 0zm0 0" fill="#8ac249"/></svg>